HIERARCHY
ROOT Hips
{
  OFFSET -35.2597 29.1586 114.425
  CHANNELS 6 Xposition Yposition Zposition Zrotation Xrotation Yrotation
  JOINT LeftUpLeg
  {
    OFFSET 8.64259 1.95398 -2.38835
    CHANNELS 3 Zrotation Xrotation Yrotation
    JOINT LeftLeg
    {
      OFFSET 43.7702 0 0
      CHANNELS 3 Zrotation Xrotation Yrotation
      JOINT LeftFoot
      {
        OFFSET 40.6238 0 0
        CHANNELS 3 Zrotation Xrotation Yrotation
        JOINT LeftToeBase
        {
          OFFSET 12.7242 0 0
          CHANNELS 3 Zrotation Xrotation Yrotation
          End Site
          {
            OFFSET 0 0 0
          }
        }
      }
    }
  }
  JOINT RightUpLeg
  {
    OFFSET -8.2249 1.95398 -2.59336
    CHANNELS 3 Zrotation Xrotation Yrotation
    JOINT RightLeg
    {
      OFFSET 43.5653 0 0
      CHANNELS 3 Zrotation Xrotation Yrotation
      JOINT RightFoot
      {
        OFFSET 40.6238 0 0
        CHANNELS 3 Zrotation Xrotation Yrotation
        JOINT RightToeBase
        {
          OFFSET 12.7242 0 0
          CHANNELS 3 Zrotation Xrotation Yrotation
          End Site
          {
            OFFSET 0 0 0
          }
        }
      }
    }
  }
  JOINT Spine
  {
    OFFSET 0.165834 0.87714 6.61349
    CHANNELS 3 Zrotation Xrotation Yrotation
    JOINT Spine1
    {
      OFFSET 7.38963 1.71661e-005 0
      CHANNELS 3 Zrotation Xrotation Yrotation
      JOINT Spine2
      {
        OFFSET 11.9445 1.14441e-005 0
        CHANNELS 3 Zrotation Xrotation Yrotation
        JOINT Spine3
        {
          OFFSET 14.7254 4.19617e-005 0
          CHANNELS 3 Zrotation Xrotation Yrotation
          JOINT Spine4
          {
            OFFSET 10.9679 0 0
            CHANNELS 3 Zrotation Xrotation Yrotation
            JOINT RightShoulder
            {
              OFFSET 2.46616 -1.6653 3.69651
              CHANNELS 3 Zrotation Xrotation Yrotation
              JOINT RightArm
              {
                OFFSET 13.0012 0 0
                CHANNELS 3 Zrotation Xrotation Yrotation
                JOINT RightForeArm
                {
                  OFFSET 28.7848 1.62311e-005 0
                  CHANNELS 3 Zrotation Xrotation Yrotation
                  JOINT RightHand
                  {
                    OFFSET 26.5688 1.62095e-005 0
                    CHANNELS 3 Zrotation Xrotation Yrotation
                    End Site
                    {
                      OFFSET 0 0 0
                    }
                  }
                }
              }
            }
            JOINT LeftShoulder
            {
              OFFSET 2.38034 -1.29275 -3.7523
              CHANNELS 3 Zrotation Xrotation Yrotation
              JOINT LeftArm
              {
                OFFSET 16.3182 6.07031e-005 0
                CHANNELS 3 Zrotation Xrotation Yrotation
                JOINT LeftForeArm
                {
                  OFFSET 27.0901 0 0
                  CHANNELS 3 Zrotation Xrotation Yrotation
                  JOINT LeftHand
                  {
                    OFFSET 24.5451 1.51738e-005 0
                    CHANNELS 3 Zrotation Xrotation Yrotation
                    End Site
                    {
                      OFFSET 0 0 0
                    }
                  }
                }
              }
            }
            JOINT Neck
            {
              OFFSET 5.0226 -0.0266342 0
              CHANNELS 3 Zrotation Xrotation Yrotation
              JOINT Head
              {
                OFFSET 6.69364 2.86102e-005 0
                CHANNELS 3 Zrotation Xrotation Yrotation
                End Site
                {
                  OFFSET 0 0 0
                }
              }
            }
          }
        }
      }
    }
  }
}
MOTION
Frames:	9
Frame Time:	0.0416667
32.2283 96.4977 -0.218213 -111.257 -70.3995 -113.804 -178.331 18.0066 85.6878 -12.3005 12.3781 -0.702807 57.1871 -1.36229 -4.71659 20.0253 -11.274 10.7631 172.586 -16.2334 88.8409 -25.3168 -25.9874 -2.99581 75.0625 -11.0681 -7.26367 31.6319 -2.3468 4.38181 1.78845 8.07543 -89.8359 10.7275 3.63712 -0.00816431 -0.938369 3.63324 -0.168459 -23.5118 3.47122 1.08666 -3.49916 3.47122 1.08665 85.8508 -33.4944 -113.227 33.7195 8.44379 -24.158 -5.34496 -42.6568 -5.47678 -31.0368 6.16685 -27.6026 -85.0027 -63.5484 87.7944 -12.0542 -17.6002 7.27549 2.71569 19.0124 -3.77053 1.15523 -0.111303 -5.04464 3.06799 -9.34958 0.713155 -0.672941 -9.34264 -11.3889 
29.6361 96.9723 10.0781 -108 -65.9928 -112.892 -176.198 17.0053 83.8195 -24.4908 11.3439 -2.2143 61.6374 0.0930326 -7.42831 17.5545 -15.5978 14.4156 172.702 -12.4064 84.9706 -40.133 -26.5295 -6.5799 63.6667 -2.3268 -4.24812 34.3521 -3.81471 6.77851 1.65737 7.93367 -89.4671 10.9982 3.54633 0.722866 -0.667996 3.57471 0.565889 -23.2339 3.165 1.75619 -3.22122 3.16499 1.75618 87.0879 -33.2448 -111.045 41.4158 5.50581 -16.7455 -5.71816 -47.6098 -5.71552 -26.122 4.18648 -23.5527 -85.7836 -61.8766 86.5873 -15.2723 -16.8337 4.72119 2.68843 18.0589 -3.74384 -1.82143 -0.104306 -6.54424 3.9878 -9.07558 -1.56305 -1.89027 -8.57643 -9.89464 
27.1936 97.4645 18.1267 -106.763 -60.5963 -113.282 -175.092 10.4588 82.4246 -26.249 7.19675 -3.42738 68.0051 3.80405 -6.64551 19.8468 -13.3065 13.5945 175.344 0.15313 82.6347 -61.9979 -22.8595 -7.41717 56.88 2.20638 -1.20919 18.733 2.10792 5.58905 1.11685 8.05348 -89.198 10.7499 2.59374 1.35531 -0.919095 2.65087 1.23978 -23.4629 2.06657 2.07227 -3.45025 2.06655 2.07226 86.0708 -34.8558 -112.228 44.3574 6.05002 -8.7104 -5.96726 -50.4681 -5.88547 -18.1367 2.25586 -19.666 -86.2671 -60.8874 85.8247 -18.5437 -15.9181 -3.91419 2.64599 16.5225 -3.70097 2.18973 -0.138801 -5.63266 5.01908 -7.23482 -1.87241 -0.885142 -6.76459 -9.4786 
24.5888 98.2461 24.7889 -103.838 -54.9198 -108.86 -174.217 3.9891 83.6709 -24.698 3.01211 -3.78911 72.8441 6.74292 -5.59941 20.3582 -12.6237 13.1377 178.394 11.6788 86.2661 -65.007 -17.5453 -6.36364 64.0203 -3.04618 -4.40041 22.579 0.589243 5.82626 0.56684 8.10058 -89.3628 10.6652 1.42249 1.13708 -1.00539 1.47116 1.07337 -23.5401 1.01504 1.512 -3.52748 1.01502 1.51198 85.9845 -35.6209 -112.06 43.5686 8.275 -1.30088 -6.26848 -53.5488 -6.10914 -17.5891 1.52249 -15.5276 -86.7393 -60.1471 85.0966 -17.5891 -16.383 -15.071 2.71669 19.0224 -3.77356 3.17486 -0.148325 -5.66152 4.60151 -4.40542 -2.859 1.03379 -3.93545 -7.18476 
21.3827 98.6632 31.2227 -100.352 -49.8138 -102.244 -173.985 -1.22894 85.2712 -22.3659 -1.85296 -2.59507 76.6003 8.31814 -4.56557 19.9537 -13.0108 13.2725 -179.867 18.3537 91.8136 -48.3742 -16.8748 -4.4603 67.0573 -5.43312 -4.39417 23.4187 -0.276994 7.44849 0.0439839 8.01362 -89.7179 10.8458 0.217927 0.540683 -0.825256 0.2415 0.530558 -23.3595 0.0453643 0.58118 -3.34687 0.0453574 0.581177 87.3167 -35.1931 -109.828 41.3964 10.1997 3.89302 -5.75333 -48.0254 -5.73853 -18.0335 1.83766 -17.2242 -86.5366 -55.9828 84.8079 -16.707 -16.9395 -23.3945 2.80046 21.7565 -3.87617 7.91743 -0.4257 -8.09113 4.71351 -1.51159 -4.0743 0.0442668 -0.795599 -4.76996 
17.346 97.9925 37.747 -98.1441 -47.1556 -98.672 -173.952 -7.1644 85.6701 -18.7192 -5.42256 -1.91568 80.5549 10.5537 -4.70644 19.834 -12.8599 12.9168 178.511 19.2846 94.9517 -22.2134 -12.0632 -0.0622532 63.6621 -3.04475 -1.52744 23.2861 0.81718 4.40611 -0.493779 7.92349 -89.9731 11.0272 -0.970463 0.146815 -0.643326 -0.963066 0.189376 -23.1815 -0.969716 -0.151673 -3.16888 -0.969713 -0.151676 88.2988 -35.3867 -107.965 36.6273 12.4256 8.24706 -5.34664 -42.6875 -5.47837 -18.8827 2.49233 -20.791 -86.3493 -52.2184 84.5394 -14.8901 -18.2391 -29.8105 2.89066 24.6036 -3.95259 7.38332 -0.783926 -12.5783 4.70934 0.670575 -4.7767 -0.160739 1.51077 -0.91325 
12.2689 96.0157 44.872 -96.5335 -45.9011 -96.5883 -173.485 -13.7627 85.746 -15.521 -6.87981 -1.90376 84.1534 13.8854 -4.0238 21.2801 -12.502 14.0475 178.744 18.8966 96.997 -6.834 -1.09366 2.13553 63.5263 -3.45127 -1.053 23.7039 0.692774 4.28518 -0.730233 7.79379 -90.1379 11.2857 -1.51743 -0.123986 -0.384336 -1.52143 -0.0570707 -22.9257 -1.41 -0.574392 -2.91309 -1.41002 -0.574404 89.194 -36.352 -105.999 35.3642 13.2708 11.7355 -4.97015 -36.8176 -5.26561 -23.3552 2.15662 -15.8858 -86.6157 -51.6624 84.0632 -13.9817 -19.142 -36.1131 2.90058 25.1576 -3.96361 5.56397 -0.91786 -16.1821 5.36461 1.34618 -4.38301 -0.61565 2.13495 1.1022 
6.16378 94.9851 53.0856 -97.1177 -47.3912 -95.9051 -171.906 -18.78 87.9199 -17.4117 -5.34785 -1.52191 79.8868 12.7776 -2.70907 35.0926 -3.61641 15.0341 177.781 22.8019 97.8744 -19.6703 -3.21908 2.44363 62.9261 -0.199239 -3.54858 20.1672 2.01035 4.48258 -1.00539 7.73862 -90.4306 11.393 -2.20141 -0.635509 -0.276225 -2.22722 -0.537971 -22.8221 -1.9086 -1.26792 -2.80944 -1.90861 -1.26793 89.8451 -37.2841 -104.519 34.6806 13.6898 13.6159 -4.86075 -34.944 -5.21472 -17.8482 1.13951 -12.6844 -87.1727 -53.2495 83.4939 -16.937 -17.0853 -38.6259 2.95742 26.5821 -4.02191 5.9907 -1.17801 -19.1449 6.62559 1.53619 -2.38123 -1.72872 1.95861 1.88332 
-0.538289 95.685 61.3382 -99.8427 -48.3623 -97.0858 -168.569 -13.104 93.3271 -36.8707 5.48225 -1.15529 65.3166 3.62424 0.385394 39.6696 -0.112349 14.1178 176.132 20.1355 97.9703 -29.7831 -4.5282 3.39609 64.7627 -1.39717 -4.30746 11.6675 4.89184 5.69281 -1.00039 7.75285 -90.5738 11.3597 -2.25812 -0.916296 -0.309543 -2.29627 -0.815994 -22.8538 -1.87836 -1.55273 -2.84115 -1.87835 -1.55273 89.579 -37.1068 -105.053 37.6328 12.9732 13.2583 -4.7587 -33.1112 -5.16737 -12.9461 1.17909 -16.2285 -87.3745 -55.2278 83.5123 -20.8484 -14.2509 -35.4778 3.43205 37.6066 -4.50367 5.72962 -1.27851 -21.0269 6.04674 1.11107 -0.794532 -2.58277 1.22207 1.48047 
